<svg viewBox="0 0 1000 1101.005" xmlns="http://www.w3.org/2000/svg"><path d="m0 500.005q0 26 4 63l3 15q4 26 10 50 1 2 1 5t2 4q17 62 50 117 65 111 177 177 54 32 116 50 2 0 5 1l4 1q22 6 51 11 2 1 7 1t8 1q30 4 62 4t63-4l14-2q29-5 51-11l4-1q3-1 5-1 61-17 116-50 112-66 177-177 33-55 51-117l1-4q1-3 1-5 6-22 11-50 0-3 1-8l1-7q4-31 4-63t-4-62q0-3-1-7t-1-8q-5-29-11-51-1-1-1-4t-1-4q-18-61-51-117-65-111-177-177-55-33-116-50-2-1-5-1t-4-2q-22-5-51-10-2-1-7-2t-7 0q-31-5-63-5t-62 5h-8q-5 0-7 2-29 5-51 10-1 1-4 2t-5 1q-62 17-116 50-112 66-177 177-33 56-50 117-1 1-2 4l-1 4q-6 25-10 51l-3 15q-4 37-4 62zm63 0q0-107 54-206l93 93q-22 57-22 113t22 114l-93 93q-54-99-54-207zm187 0q0-19 4-38 1-9 5-26 17-65 65-112t112-64q9-3 25-6 21-4 39.5-4t38.5 4q16 3 25 6 65 17 112 64t65 112l5 25q4 21 4 39t-4 39q-3 17-5 25-17 65-65 113t-112 64q-17 4-25 5-20 4-38.5 4t-39.5-4q-8-1-25-5-65-17-112-64t-65-113q-4-16-5-25-4-21-4-39zm44 384 92-93q57 22 114.5 22t113.5-23l93 94q-100 54-207 54t-206-54zm0-767q99-54 206-54t207 54l-93 93q-57-22-114-22t-114 22zm497 497q22-57 22-114t-22-113l92-93q55 99 55 206t-55 207z"/></svg>